<svg version="1.0" xmlns="http://www.w3.org/2000/svg"
 width="481.000000pt" height="519.000000pt" viewBox="0 0 481.000000 519.000000"
 preserveAspectRatio="xMidYMid meet">

<g transform="translate(0.000000,519.000000) scale(0.100000,-0.100000)"
fill="#000000" stroke="none">
<path d="M2356 3370 c-59 -11 -94 -41 -108 -96 -10 -34 -17 -44 -44 -52 -18
-5 -44 -7 -58 -5 -55 11 -139 -60 -246 -209 -30 -42 -59 -75 -65 -74 -5 1 -13
20 -17 41 -10 49 -20 55 -85 55 -53 0 -83 -17 -83 -46 0 -24 50 -63 89 -69 97
-16 98 -20 19 -49 -62 -23 -132 -86 -153 -138 -51 -126 18 -520 105 -603 l30
-29 -142 -28 c-78 -16 -145 -31 -148 -35 -3 -3 47 -3 110 1 400 22 528 26 910
26 234 0 513 -4 620 -10 431 -22 421 -22 366 -5 -27 7 -90 22 -140 31 -50 9
-93 18 -95 20 -2 2 10 17 27 34 22 22 40 58 61 123 42 132 54 207 53 338 0
162 -25 205 -155 269 -66 33 -69 46 -11 53 53 6 98 34 102 66 6 36 -15 51 -70
51 -68 0 -88 -13 -88 -55 0 -45 -20 -46 -51 -1 -136 191 -191 239 -275 242
-73 3 -93 11 -100 42 -12 48 -34 81 -64 97 -36 19 -222 28 -294 15z m149 -31
c9 -27 3 -31 -33 -27 -26 3 -28 6 -21 26 11 28 45 29 54 1z m-115 5 c0 -23
-24 -44 -52 -44 l-31 0 23 25 c21 22 60 35 60 19z m228 -10 c30 -21 28 -34 -5
-34 -20 0 -31 7 -40 25 -9 21 -9 25 6 25 9 0 27 -7 39 -16z m-178 -41 c-1 -18
-17 -31 -47 -35 -34 -5 -37 -1 -27 26 6 16 74 24 74 9z m148 -19 c3 -18 -1
-20 -33 -16 -27 3 -35 9 -35 24 0 29 64 22 68 -8z m148 -107 c139 -36 191 -72
278 -194 l38 -53 -47 0 c-40 0 -54 5 -86 34 -61 56 -152 61 -199 11 l-23 -25
-216 0 c-118 0 -288 -5 -378 -11 -89 -6 -167 -9 -173 -7 -6 2 14 39 45 83 71
102 120 134 252 163 138 30 143 31 288 27 95 -3 155 -10 221 -28z m134 -227
c11 -7 -4 -10 -48 -10 -40 0 -61 4 -57 10 8 13 85 13 105 0z m-1040 -210 c29
-31 47 -81 35 -100 -6 -10 -37 -9 -132 6 -41 6 -93 55 -93 87 0 32 9 35 93 36
64 1 71 -1 97 -29z m1481 14 c16 -20 -2 -56 -42 -86 -29 -22 -167 -44 -182
-29 -14 14 15 80 46 107 24 20 39 24 97 24 50 0 71 -4 81 -16z m-836 -69 c121
0 272 3 335 7 102 6 111 5 79 -6 -64 -24 -268 -48 -413 -48 -144 0 -352 24
-416 48 -31 11 -21 12 80 6 63 -4 214 -7 335 -7z m327 -303 c17 -16 18 -23 8
-41 -6 -12 -22 -26 -36 -31 -38 -15 -567 -13 -599 2 -26 12 -42 48 -30 68 14
23 49 25 341 24 281 -2 297 -3 316 -22z m-884 -9 c3 -20 -1 -23 -30 -23 -34 0
-78 23 -78 41 0 6 22 9 53 7 45 -3 52 -6 55 -25z m1207 18 c9 -16 -37 -41 -76
-41 -31 0 -35 3 -33 23 1 12 3 23 3 25 3 7 101 1 106 -7z m-655 -205 c201 0
401 3 446 7 l81 8 -1 -34 c-1 -33 -3 -35 -31 -31 -151 22 -748 26 -932 6 l-73
-8 0 34 0 33 73 -7 c39 -5 236 -8 437 -8z"/>
</g>
</svg>