<svg version="1.0" xmlns="http://www.w3.org/2000/svg"
 width="481.000000pt" height="519.000000pt" viewBox="0 0 481.000000 519.000000"
 preserveAspectRatio="xMidYMid meet">

<g transform="translate(0.000000,519.000000) scale(0.100000,-0.100000)"
fill="#000000" stroke="none">
<path d="M1270 4242 c0 -76 2 -141 5 -144 3 -3 36 3 73 13 115 32 106 48 98
-168 -3 -104 -9 -250 -13 -327 l-6 -138 94 73 c52 40 113 84 137 97 24 14 44
33 46 45 3 12 12 128 21 257 10 151 20 237 27 241 7 4 45 11 85 14 40 4 79 12
87 19 10 7 16 33 17 81 l3 70 -337 3 -337 2 0 -138z m175 81 c-81 -29 -123
-57 -135 -87 -8 -20 -3 73 6 102 2 8 31 12 101 11 l98 0 -70 -26z"/>
<path d="M2028 4247 c-88 -205 -203 -497 -195 -497 1 0 34 12 72 26 39 15 102
36 140 48 39 11 75 24 81 28 6 4 19 32 29 63 21 59 27 63 98 68 38 2 39 1 55
-47 l17 -49 153 -2 c83 -1 152 -1 152 0 0 8 -57 137 -91 205 -23 47 -61 130
-85 185 l-42 100 -164 2 -163 3 -57 -133z m192 98 c0 -2 -26 -21 -57 -41 -32
-20 -71 -48 -87 -63 l-28 -26 15 30 c8 17 22 47 30 68 16 36 17 37 71 37 31 0
56 -2 56 -5z m39 -252 c6 -20 9 -38 8 -39 -1 0 -14 -4 -29 -8 -32 -7 -36 8
-17 62 13 38 25 34 38 -15z"/>
<path d="M2627 4368 c5 -7 26 -33 45 -58 20 -25 61 -79 91 -121 l54 -76 -33
-44 c-19 -24 -45 -61 -59 -81 -13 -20 -38 -53 -56 -72 -35 -40 -37 -38 61 -56
36 -6 103 -22 149 -36 45 -14 84 -24 86 -22 1 2 6 20 11 41 5 21 14 38 19 39
6 0 20 -26 33 -59 21 -53 29 -62 72 -82 56 -27 200 -111 224 -130 9 -8 18 -12
21 -9 6 5 -146 357 -174 401 -27 44 -27 47 7 104 33 56 122 247 122 263 0 6
-53 10 -149 10 l-148 0 -13 -45 c-7 -25 -17 -45 -22 -45 -5 0 -18 20 -29 45
l-20 45 -151 0 c-119 0 -148 -3 -141 -12z m158 -38 c-11 -12 -16 -30 -13 -49
5 -36 -5 -30 -53 31 l-31 38 58 0 c56 0 57 0 39 -20z m356 9 c-14 -5 -42 -14
-63 -18 -34 -8 -38 -7 -38 10 0 17 8 19 63 18 50 0 57 -2 38 -10z"/>
<path d="M3370 4313 c1 -38 9 -223 19 -413 l19 -345 121 -122 121 -122 0 534
0 535 -140 0 -140 0 0 -67z m143 8 c-54 -39 -81 -76 -89 -120 -14 -79 -23 -63
-24 42 l0 107 77 0 76 0 -40 -29z"/>
<path d="M2356 3370 c-59 -11 -94 -41 -108 -96 -10 -34 -17 -44 -44 -52 -18
-5 -44 -7 -58 -5 -55 11 -139 -60 -246 -209 -30 -42 -59 -75 -65 -74 -5 1 -13
20 -17 41 -10 49 -20 55 -85 55 -53 0 -83 -17 -83 -46 0 -24 50 -63 89 -69 97
-16 98 -20 19 -49 -62 -23 -132 -86 -153 -138 -51 -126 18 -520 105 -603 l30
-29 -142 -28 c-78 -16 -145 -31 -148 -35 -3 -3 47 -3 110 1 400 22 528 26 910
26 234 0 513 -4 620 -10 431 -22 421 -22 366 -5 -27 7 -90 22 -140 31 -50 9
-93 18 -95 20 -2 2 10 17 27 34 22 22 40 58 61 123 42 132 54 207 53 338 0
162 -25 205 -155 269 -66 33 -69 46 -11 53 53 6 98 34 102 66 6 36 -15 51 -70
51 -68 0 -88 -13 -88 -55 0 -45 -20 -46 -51 -1 -136 191 -191 239 -275 242
-73 3 -93 11 -100 42 -12 48 -34 81 -64 97 -36 19 -222 28 -294 15z m149 -31
c9 -27 3 -31 -33 -27 -26 3 -28 6 -21 26 11 28 45 29 54 1z m-115 5 c0 -23
-24 -44 -52 -44 l-31 0 23 25 c21 22 60 35 60 19z m228 -10 c30 -21 28 -34 -5
-34 -20 0 -31 7 -40 25 -9 21 -9 25 6 25 9 0 27 -7 39 -16z m-178 -41 c-1 -18
-17 -31 -47 -35 -34 -5 -37 -1 -27 26 6 16 74 24 74 9z m148 -19 c3 -18 -1
-20 -33 -16 -27 3 -35 9 -35 24 0 29 64 22 68 -8z m148 -107 c139 -36 191 -72
278 -194 l38 -53 -47 0 c-40 0 -54 5 -86 34 -61 56 -152 61 -199 11 l-23 -25
-216 0 c-118 0 -288 -5 -378 -11 -89 -6 -167 -9 -173 -7 -6 2 14 39 45 83 71
102 120 134 252 163 138 30 143 31 288 27 95 -3 155 -10 221 -28z m134 -227
c11 -7 -4 -10 -48 -10 -40 0 -61 4 -57 10 8 13 85 13 105 0z m-1040 -210 c29
-31 47 -81 35 -100 -6 -10 -37 -9 -132 6 -41 6 -93 55 -93 87 0 32 9 35 93 36
64 1 71 -1 97 -29z m1481 14 c16 -20 -2 -56 -42 -86 -29 -22 -167 -44 -182
-29 -14 14 15 80 46 107 24 20 39 24 97 24 50 0 71 -4 81 -16z m-836 -69 c121
0 272 3 335 7 102 6 111 5 79 -6 -64 -24 -268 -48 -413 -48 -144 0 -352 24
-416 48 -31 11 -21 12 80 6 63 -4 214 -7 335 -7z m327 -303 c17 -16 18 -23 8
-41 -6 -12 -22 -26 -36 -31 -38 -15 -567 -13 -599 2 -26 12 -42 48 -30 68 14
23 49 25 341 24 281 -2 297 -3 316 -22z m-884 -9 c3 -20 -1 -23 -30 -23 -34 0
-78 23 -78 41 0 6 22 9 53 7 45 -3 52 -6 55 -25z m1207 18 c9 -16 -37 -41 -76
-41 -31 0 -35 3 -33 23 1 12 3 23 3 25 3 7 101 1 106 -7z m-655 -205 c201 0
401 3 446 7 l81 8 -1 -34 c-1 -33 -3 -35 -31 -31 -151 22 -748 26 -932 6 l-73
-8 0 34 0 33 73 -7 c39 -5 236 -8 437 -8z"/>
<path d="M1940 1867 c-18 -9 -25 -21 -25 -42 0 -25 7 -33 38 -48 20 -10 37
-23 37 -27 0 -16 -20 -21 -40 -10 -21 11 -50 -1 -50 -21 0 -17 74 -31 103 -20
58 22 51 87 -11 103 -19 5 -32 15 -32 24 0 13 7 15 34 10 41 -8 59 10 31 31
-23 16 -53 16 -85 0z"/>
<path d="M2803 1866 c-78 -35 -70 -139 12 -166 39 -13 88 -6 104 14 16 19 -12
40 -39 31 -31 -10 -68 2 -75 24 -13 42 28 77 72 60 25 -9 53 15 36 32 -17 17
-77 20 -110 5z"/>
<path d="M2090 1785 l0 -85 65 0 c58 0 65 2 65 20 0 17 -7 20 -45 20 -33 0
-45 4 -45 15 0 11 11 15 40 15 53 0 56 27 3 32 -56 5 -55 28 1 28 39 0 46 3
46 20 0 18 -7 20 -65 20 l-65 0 0 -85z"/>
<path d="M2270 1785 c0 -83 0 -85 24 -85 21 0 25 5 28 38 l3 37 20 -37 c15
-30 24 -38 47 -38 33 0 34 3 8 41 l-21 28 21 21 c24 24 25 29 4 58 -13 19 -24
22 -75 22 l-59 0 0 -85z m74 49 c23 -9 20 -34 -4 -34 -13 0 -20 7 -20 20 0 22
1 23 24 14z"/>
<path d="M2440 1864 c0 -3 14 -41 31 -85 29 -72 34 -79 59 -79 25 0 31 7 59
78 17 42 31 80 31 85 0 4 -10 7 -23 7 -19 0 -26 -10 -42 -55 -10 -31 -22 -52
-25 -48 -4 4 -15 29 -25 56 -14 38 -22 47 -41 47 -13 0 -24 -2 -24 -6z"/>
<path d="M2660 1785 c0 -84 0 -85 25 -85 25 0 25 1 25 85 0 84 0 85 -25 85
-25 0 -25 -1 -25 -85z"/>
<path d="M2960 1785 l0 -85 70 0 c63 0 70 2 70 20 0 17 -7 20 -45 20 -33 0
-45 4 -45 15 0 11 11 15 40 15 29 0 40 4 40 15 0 11 -11 15 -40 15 -29 0 -40
4 -40 15 0 11 11 15 40 15 33 0 40 3 40 20 0 18 -7 20 -65 20 l-65 0 0 -85z"/>
</g>
</svg>